<svg width="86" height="16" viewBox="0 0 86 16" fill="none" xmlns="http://www.w3.org/2000/svg">
<path opacity="0.7" d="M86 7.74256C85.7189 6.9684 85.1249 6.70002 84.2591 6.70174C74.6872 6.7155 14.8643 6.71034 5.2924 6.71034C5.15462 6.71034 5.01684 6.71034 4.79434 6.71034C4.93398 6.57615 5.02243 6.48755 5.11459 6.40154C6.62272 5.0132 8.12991 3.62486 9.63989 2.23911C10.0495 1.86321 10.1836 1.41419 10.0225 0.910985C9.87263 0.443905 9.51608 0.145421 8.99847 0.0353176C8.46318 -0.0782267 8.02006 0.0886489 7.63837 0.440464C5.94965 1.99568 4.25719 3.54745 2.5666 5.10094C1.94008 5.67726 1.29866 6.23982 0.694481 6.83593C0.423576 7.10345 0.229012 7.43806 0 7.7417C0 7.91374 0 8.08578 0 8.25781C0.229012 8.56232 0.415207 8.90553 0.693558 9.16359C2.99019 11.2968 5.30357 13.4146 7.61417 15.535C8.23045 16.101 9.03106 16.1534 9.61197 15.6752C10.232 15.1651 10.2506 14.3298 9.63617 13.7613C8.1327 12.3695 6.62179 10.9837 5.11087 9.59884C5.0215 9.51712 4.90792 9.45863 4.80552 9.38895C4.8232 9.35541 4.84183 9.32186 4.85951 9.28917C4.99171 9.28917 5.1239 9.28917 5.2561 9.28917C14.8392 9.28917 74.6732 9.28401 84.2563 9.29777C85.124 9.30035 85.7179 9.03198 86 8.25867C86 8.08664 86 7.9146 86 7.74256Z" fill="white"/>
</svg>
