<svg width="86" height="16" viewBox="0 0 86 16" fill="none" xmlns="http://www.w3.org/2000/svg">
<path opacity="0.7" d="M0 7.74256C0.281144 6.9684 0.875085 6.70002 1.74086 6.70174C11.3128 6.7155 71.1357 6.71034 80.7076 6.71034C80.8454 6.71034 80.9832 6.71034 81.2057 6.71034C81.066 6.57615 80.9776 6.48755 80.8854 6.40154C79.3773 5.0132 77.8701 3.62486 76.3601 2.23911C75.9505 1.86321 75.8164 1.41419 75.9775 0.910985C76.1274 0.443905 76.4839 0.145421 77.0015 0.0353176C77.5368 -0.0782267 77.9799 0.0886489 78.3616 0.440464C80.0504 1.99568 81.7428 3.54745 83.4334 5.10094C84.0599 5.67726 84.7013 6.23982 85.3055 6.83593C85.5764 7.10345 85.771 7.43806 86 7.7417C86 7.91374 86 8.08578 86 8.25781C85.771 8.56232 85.5848 8.90553 85.3064 9.16359C83.0098 11.2968 80.6964 13.4146 78.3858 15.535C77.7696 16.101 76.9689 16.1534 76.388 15.6752C75.768 15.1651 75.7494 14.3298 76.3638 13.7613C77.8673 12.3695 79.3782 10.9837 80.8891 9.59884C80.9785 9.51712 81.0921 9.45863 81.1945 9.38895C81.1768 9.35541 81.1582 9.32186 81.1405 9.28917C81.0083 9.28917 80.8761 9.28917 80.7439 9.28917C71.1608 9.28917 11.3268 9.28401 1.74365 9.29777C0.876015 9.30035 0.282075 9.03198 0 8.25867C0 8.08664 0 7.9146 0 7.74256Z" fill="white"/>
</svg>
