<svg width="26" height="19" viewBox="0 0 26 19" fill="none" xmlns="http://www.w3.org/2000/svg">
<path d="M0 8.85546C0.147604 8.61442 0.265417 8.34697 0.450937 8.13978C0.68724 7.87572 1.02849 7.80598 1.37854 7.80598C1.76786 7.80598 2.15651 7.80598 2.54583 7.80598C9.81974 7.80598 17.0943 7.8114 24.3682 7.79786C25.176 7.7965 25.7427 8.05989 26 8.85546C26 9.02473 26 9.194 26 9.36327C25.9709 9.43166 25.9404 9.49937 25.9127 9.56843C25.721 10.0376 25.3771 10.3166 24.874 10.3918C24.7826 10.4053 24.6892 10.4121 24.5964 10.4121C16.8661 10.4128 9.13521 10.4128 1.40495 10.4134C0.67099 10.4134 0.2275 10.0356 0.000677083 9.36327C0 9.194 0 9.02473 0 8.85546Z" fill="white"/>
<path d="M25.9999 1.54163C25.8361 2.0684 25.53 2.4557 24.9633 2.57622C24.8489 2.60059 24.7283 2.60669 24.6112 2.60669C19.0348 2.60804 13.4576 2.60804 7.88116 2.60736C7.18309 2.60736 6.67595 2.21601 6.53038 1.57481C6.40038 1.00268 6.68949 0.38179 7.23793 0.146165C7.4546 0.0534046 7.71189 0.0175191 7.9509 0.0168421C11.5476 0.00871706 15.1436 0.0114254 18.7402 0.0114254C20.6103 0.0114254 22.4811 0.0344462 24.3505 0.000592059C25.161 -0.0143038 25.7243 0.249759 25.9999 1.03314C25.9999 1.20309 25.9999 1.37236 25.9999 1.54163Z" fill="white"/>
<path d="M26 17.185C25.9269 17.334 25.8693 17.4937 25.7766 17.6305C25.5166 18.0144 25.1475 18.2067 24.681 18.2067C23.5395 18.2067 22.3972 18.2067 21.2557 18.2067C18.5236 18.2067 15.7923 18.2081 13.0603 18.2054C12.348 18.2047 11.8178 17.7653 11.7196 17.1078C11.6032 16.3265 12.1767 15.6331 12.9661 15.6128C13.3886 15.602 13.8118 15.6101 14.235 15.6101C17.6265 15.6101 21.018 15.6101 24.4095 15.6101C25.3371 15.6101 25.6493 15.8193 26 16.6765C26 16.8465 26 17.0157 26 17.185Z" fill="white"/>
</svg>
