<svg width="62" height="62" viewBox="0 0 62 62" fill="none" xmlns="http://www.w3.org/2000/svg">
<circle opacity="0.3" cx="31" cy="31" r="30.5" stroke="white"/>
<path d="M33.059 30.9439C35.2561 33.1414 37.3397 35.2303 39.432 37.3104C39.8764 37.7515 40.1073 38.2499 39.9513 38.8696C39.6642 40.0065 38.2884 40.3813 37.4233 39.5505C36.6805 38.8371 35.9627 38.0963 35.2349 37.3679C33.9328 36.0649 32.6308 34.7606 31.3275 33.4588C31.2301 33.3613 31.1265 33.2701 31.0042 33.1552C30.8693 33.2814 30.7432 33.3925 30.6246 33.5112C28.626 35.5089 26.6336 37.5141 24.6274 39.5043C23.7473 40.3775 22.3679 40.0427 22.057 38.8908C21.8897 38.2724 22.1095 37.7702 22.5551 37.3279C24.5475 35.3452 26.5312 33.3538 28.5174 31.3661C28.626 31.2574 28.7296 31.1438 28.8569 31.0101C28.7296 30.8751 28.6185 30.749 28.4999 30.6303C26.5025 28.6301 24.5039 26.6337 22.5089 24.631C21.9759 24.0963 21.861 23.4454 22.1669 22.8345C22.4503 22.271 23.047 21.8987 23.6687 22.0362C24.0395 22.1174 24.4314 22.3322 24.7036 22.5996C26.6873 24.5461 28.6447 26.52 30.6072 28.4877C30.727 28.6076 30.8256 28.75 30.9517 28.9037C31.134 28.7338 31.2588 28.6239 31.3774 28.5052C33.3761 26.5062 35.371 24.5048 37.3721 22.5096C37.9089 21.9749 38.5556 21.8612 39.1673 22.1673C39.7291 22.4497 40.1073 23.0569 39.9688 23.669C39.8851 24.0401 39.6716 24.4324 39.4045 24.7047C37.4595 26.6899 35.4871 28.6476 33.5184 30.6103C33.3973 30.729 33.2412 30.8127 33.059 30.9439Z" fill="white"/>
</svg>
