<svg width="62" height="62" viewBox="0 0 62 62" fill="none" xmlns="http://www.w3.org/2000/svg">
<circle opacity="0.3" cx="31" cy="31" r="30.5" stroke="white"/>
<path d="M35.6917 18C36.1451 18.0335 36.5985 18.067 37.0518 18.1026C37.3657 18.1278 37.6774 18.155 38 18.1843C38 19.5667 38 20.924 38 22.3169C37.8997 22.3169 37.806 22.3148 37.7145 22.3169C36.7837 22.3295 35.8508 22.3148 34.9223 22.363C33.7867 22.4217 33.1655 23.0081 33.1197 24.0931C33.074 25.1991 33.1023 26.3092 33.0979 27.4172C33.0979 27.4403 33.111 27.4633 33.1263 27.5136C34.6825 27.5136 36.241 27.5136 37.8409 27.5136C37.6338 29.0678 37.4289 30.5884 37.2219 32.1342C35.8487 32.1342 34.4907 32.1342 33.1132 32.1342C33.1045 32.2327 33.0936 32.306 33.0936 32.3793C33.0936 36.1935 33.0936 40.0098 33.0936 43.8241C33.0936 43.8827 33.1023 43.9414 33.1066 44C31.4545 44 29.8023 44 28.1479 44C28.1435 43.8911 28.1348 43.7801 28.1348 43.6712C28.1348 39.9491 28.1348 36.227 28.1348 32.505C28.1348 32.396 28.1348 32.2871 28.1348 32.1468C26.7464 32.1468 25.3797 32.1468 24 32.1468C24 30.5947 24 29.0761 24 27.524C25.3645 27.524 26.7311 27.524 28.1348 27.524C28.1348 27.3942 28.1348 27.2957 28.1348 27.1973C28.1392 25.9866 28.1087 24.776 28.161 23.5695C28.2242 22.1138 28.671 20.7774 29.7369 19.6903C30.5477 18.863 31.5613 18.3896 32.7056 18.1613C33.0129 18.1005 33.3246 18.0566 33.6341 18.0042C34.3207 18 35.0051 18 35.6917 18Z" fill="white"/>
</svg>
