<svg width="62" height="62" viewBox="0 0 62 62" fill="none" xmlns="http://www.w3.org/2000/svg">
<g clip-path="url(#clip0_2051_4)">
<circle opacity="0.3" cx="31" cy="31" r="30.5" stroke="white"/>
<path d="M37.4677 43C33.1556 43 28.8435 43 24.5313 43C24.3634 42.9699 24.1946 42.942 24.0274 42.9105C21.8244 42.4945 20.2823 41.2472 19.4336 39.1812C19.212 38.642 19.1409 38.0418 19.0007 37.4695C19 33.1577 19 28.8459 19 24.5341C19.0946 24.0858 19.1504 23.6243 19.2905 23.1907C20.1033 20.6728 22.376 19.0139 25.0368 19.0066C29.0122 18.9956 32.9883 19.0007 36.9637 19.0051C38.2497 19.0066 39.4322 19.3654 40.471 20.1284C42.1612 21.3712 42.9953 23.0579 42.9975 25.1519C43.0012 29.0257 43.0012 32.8995 42.9946 36.7733C42.9939 37.1695 42.9755 37.573 42.9044 37.9618C42.5009 40.179 41.242 41.7263 39.1608 42.573C38.6267 42.7902 38.0333 42.8613 37.4677 43ZM31.0046 26.0015C28.2661 25.9897 26.0352 28.2098 25.9985 30.9839C25.9626 33.7109 28.2302 35.989 30.9936 36.0022C33.7292 36.0147 35.9645 33.7902 36.0005 31.0191C36.0357 28.292 33.7666 26.0132 31.0046 26.0015ZM37.5007 25.9956C38.3208 25.9949 38.9869 25.3353 38.9979 24.5128C39.0097 23.6977 38.3186 23.0029 37.497 23.0037C36.6812 23.0044 36.0107 23.6735 36.0056 24.4923C35.9997 25.325 36.668 25.9963 37.5007 25.9956Z" fill="white"/>
</g>
<defs>
<clipPath id="clip0_2051_4">
<rect width="62" height="62" fill="white"/>
</clipPath>
</defs>
</svg>
