<svg width="22" height="21" viewBox="0 0 22 21" fill="none" xmlns="http://www.w3.org/2000/svg">
<path fill-rule="evenodd" clip-rule="evenodd" d="M11.2803 0C5.35997 0 0.560547 4.69563 0.560547 10.4879C0.560547 16.2803 5.35997 20.9759 11.2803 20.9759C17.2007 20.9759 22.0001 16.2803 22.0001 10.4879C22.0001 4.69563 17.2007 0 11.2803 0ZM8.92345 4.92816C9.53327 4.90102 9.72814 4.89438 11.2809 4.89438H11.2791C12.8323 4.89438 13.0264 4.90102 13.6363 4.92816C14.2449 4.95542 14.6606 5.04973 15.0251 5.18804C15.4015 5.33081 15.7195 5.5219 16.0375 5.83305C16.3556 6.14397 16.5509 6.45603 16.6974 6.82394C16.8379 7.17961 16.9344 7.58606 16.963 8.18156C16.9904 8.77824 16.9975 8.96886 16.9975 10.488C16.9975 12.0071 16.9904 12.1973 16.963 12.794C16.9344 13.3892 16.8379 13.7958 16.6974 14.1516C16.5509 14.5194 16.3556 14.8314 16.0375 15.1424C15.7198 15.4535 15.4014 15.6451 15.0255 15.788C14.6617 15.9263 14.2457 16.0206 13.6371 16.0478C13.0272 16.075 12.833 16.0817 11.2801 16.0817C9.72756 16.0817 9.53282 16.075 8.92295 16.0478C8.31443 16.0206 7.89886 15.9263 7.5351 15.788C7.15928 15.6451 6.84033 15.4535 6.52266 15.1424C6.20473 14.8314 6.00941 14.5194 5.86326 14.1515C5.72198 13.7958 5.62564 13.3894 5.59764 12.7939C5.57003 12.1972 5.56311 12.0071 5.56311 10.488C5.56311 8.96886 5.57026 8.77811 5.59755 8.18143C5.62493 7.58619 5.7214 7.17961 5.86313 6.82381C6.00963 6.45603 6.205 6.14397 6.52302 5.83305C6.84082 5.52204 7.15977 5.33089 7.53582 5.18804C7.89935 5.04973 8.31479 4.95542 8.92345 4.92816Z" fill="white"/>
<path fill-rule="evenodd" clip-rule="evenodd" d="M10.7681 5.90203C10.8676 5.9019 10.9748 5.90195 11.0904 5.90199L11.281 5.90203C12.8075 5.90203 12.9884 5.90741 13.5912 5.9342C14.1486 5.95915 14.4512 6.05027 14.6527 6.12683C14.9195 6.22822 15.1097 6.34944 15.3097 6.54522C15.5098 6.741 15.6337 6.92747 15.7376 7.1885C15.8158 7.38546 15.9091 7.68145 15.9345 8.22683C15.9618 8.81653 15.9678 8.99365 15.9678 10.4865C15.9678 11.9793 15.9618 12.1565 15.9345 12.7462C15.909 13.2915 15.8158 13.5875 15.7376 13.7845C15.634 14.0455 15.5098 14.2314 15.3097 14.4271C15.1096 14.6228 14.9196 14.7441 14.6527 14.8455C14.4514 14.9224 14.1486 15.0133 13.5912 15.0382C12.9885 15.065 12.8075 15.0708 11.281 15.0708C9.75435 15.0708 9.57341 15.065 8.9707 15.0382C8.41327 15.013 8.11075 14.9219 7.90908 14.8453C7.6423 14.7439 7.45171 14.6227 7.25161 14.4269C7.0515 14.2312 6.92765 14.0452 6.82375 13.784C6.7455 13.5871 6.65224 13.2911 6.62687 12.7457C6.59949 12.156 6.59399 11.9789 6.59399 10.4851C6.59399 8.99133 6.59949 8.81513 6.62687 8.22543C6.65237 7.68005 6.7455 7.38406 6.82375 7.18688C6.92738 6.92581 7.0515 6.73939 7.25161 6.54361C7.45171 6.34783 7.6423 6.2266 7.90908 6.125C8.11061 6.04808 8.41327 5.95718 8.9707 5.9321C9.49811 5.90881 9.70254 5.90181 10.7681 5.90063V5.90203ZM14.3328 6.83085C13.954 6.83085 13.6467 7.13116 13.6467 7.50188C13.6467 7.87246 13.954 8.17312 14.3328 8.17312C14.7116 8.17312 15.0189 7.87246 15.0189 7.50188C15.0189 7.1313 14.7116 6.83085 14.3328 6.83085ZM8.34493 10.4878C8.34493 8.9014 9.65944 7.61519 11.2808 7.61515C12.9023 7.61515 14.2165 8.90135 14.2165 10.4878C14.2165 12.0742 12.9024 13.3598 11.281 13.3598C9.65953 13.3598 8.34493 12.0742 8.34493 10.4878Z" fill="white"/>
<path d="M11.2807 8.62305C12.3332 8.62305 13.1865 9.45784 13.1865 10.4877C13.1865 11.5174 12.3332 12.3523 11.2807 12.3523C10.2282 12.3523 9.375 11.5174 9.375 10.4877C9.375 9.45784 10.2282 8.62305 11.2807 8.62305Z" fill="white"/>
</svg>
