<svg width="13" height="17" viewBox="0 0 13 17" fill="none" xmlns="http://www.w3.org/2000/svg">
<path d="M6.63525 17C6.54506 17 6.45486 17 6.36467 17C6.2393 16.9097 6.1031 16.8304 5.99036 16.7268C4.70237 15.5435 3.54021 14.2517 2.52596 12.8341C1.60237 11.5432 0.821727 10.1783 0.358575 8.65672C-0.116754 7.09529 -0.163655 5.53518 0.487103 4.01094C1.33358 2.02805 2.82496 0.74375 4.94951 0.193464C5.31164 0.0996094 5.68956 0.0628646 6.05981 0C6.35294 0 6.64608 0 6.93921 0C7.24993 0.0478125 7.56426 0.0783594 7.87048 0.145651C11.3502 0.909766 13.5568 4.24734 12.8772 7.69029C12.6386 8.89755 12.1854 10.0216 11.5834 11.0912C10.3946 13.2029 8.8315 15.0251 7.05962 16.6826C6.93154 16.8026 6.77731 16.8946 6.63525 17ZM6.39173 9.91622C8.33994 10.0048 10.009 8.46503 10.1064 6.48922C10.2011 4.56919 8.6227 2.9201 6.60774 2.83378C4.65412 2.7501 2.98235 4.29206 2.89306 6.26078C2.80512 8.18656 4.37271 9.82458 6.39173 9.91622Z" fill="#C19976"/>
</svg>
