<svg width="14" height="14" viewBox="0 0 14 14" fill="none" xmlns="http://www.w3.org/2000/svg">
<path d="M14 6.99507C13.9814 10.3958 11.5153 13.3316 8.17677 13.8956C6.53748 14.1726 4.99221 13.8972 3.54216 13.0847C3.46123 13.0394 3.39576 13.0335 3.30809 13.0656C2.51383 13.3594 1.71719 13.646 0.922541 13.9389C0.65197 14.0387 0.403616 14.0232 0.193348 13.8141C-0.0220769 13.6002 -0.0359625 13.3482 0.0659975 13.0712C0.357595 12.2802 0.640861 11.4861 0.931666 10.6947C0.965784 10.6025 0.96023 10.5322 0.911829 10.4467C-1.33565 6.47081 0.75631 1.45234 5.16201 0.246017C9.10513 -0.833514 13.1732 1.75323 13.8607 5.78318C13.929 6.18344 13.9548 6.59085 14 6.99507Z" fill="#C19976"/>
</svg>
