<svg width="502" height="128" viewBox="0 0 502 128" fill="none" xmlns="http://www.w3.org/2000/svg">
<path opacity="0.3" d="M94.64 -8.58307e-06H142.7V3.41999H132.8V122.58H142.7V126H87.8V122.58H97.7V10.08H96.98L69.98 126H47.48L15.8 9.54H15.08V122.58H24.98V126H0.5V122.58H10.4V3.41999H0.5V-8.58307e-06H49.1L73.04 92.7L94.64 -8.58307e-06ZM151.552 -8.58307e-06H245.152L246.952 35.64H243.712C238.672 23.52 233.392 15.24 227.872 10.8C222.352 6.23999 214.252 3.95999 203.572 3.95999H197.272V59.58H203.392C209.032 59.58 213.772 57.48 217.612 53.28C221.452 48.96 224.152 43.2 225.712 36H228.412V89.28H225.352C223.192 80.28 220.252 73.86 216.532 70.02C212.932 66.18 207.952 64.26 201.592 64.26H197.272V122.04H204.112C215.152 122.04 224.512 118.74 232.192 112.14C239.992 105.54 245.332 97.08 248.212 86.76H251.812L250.372 126H151.552V122.04H162.172V3.95999H151.552V-8.58307e-06ZM366.896 3.41999V126H341.696L279.956 9.54V122.58H289.856V126H265.196V122.58H275.096V3.41999H265.196V-8.58307e-06H314.876L362.036 90.36V3.41999H352.136V-8.58307e-06H376.796V3.41999H366.896ZM430.662 87.66C430.662 98.7 432.522 107.16 436.242 113.04C440.082 118.92 446.922 121.86 456.762 121.86C466.602 121.86 474.162 118.8 479.442 112.68C484.722 106.56 487.362 97.26 487.362 84.78V3.41999H475.662V-8.58307e-06H501.942V3.41999H492.042V83.52C492.042 98.4 488.742 109.5 482.142 116.82C475.542 124.14 463.842 127.8 447.042 127.8C430.362 127.8 417.582 124.32 408.702 117.36C399.942 110.4 395.562 98.46 395.562 81.54V3.41999H385.662V-8.58307e-06H442.362V3.41999H430.662V87.66Z" fill="#232B35"/>
</svg>
