<svg width="16" height="16" viewBox="0 0 16 16" fill="none" xmlns="http://www.w3.org/2000/svg">
<path d="M11.9943 16C11.2195 15.9298 10.55 15.7525 9.89662 15.5112C8.3358 14.9354 6.95155 14.0605 5.67051 13.0128C3.88416 11.5515 2.39228 9.83861 1.26291 7.82184C0.676656 6.77502 0.236741 5.67177 0.029461 4.48188C-0.0332568 4.12065 -0.00389956 3.79851 0.196264 3.48038C0.93242 2.31271 1.77978 1.241 2.84287 0.350586C2.91092 0.293713 2.98699 0.246615 3.05949 0.195074C3.47672 -0.100399 3.80943 -0.0493023 4.24757 0.274607C4.32675 0.333258 4.39614 0.410569 4.45352 0.490991C5.13763 1.4565 5.7955 2.43934 6.31415 3.50659C6.42757 3.73986 6.51342 3.98779 6.59526 4.23439C6.69623 4.53831 6.6353 4.82934 6.41912 5.05727C6.1598 5.33053 5.87601 5.58113 5.59178 5.82906C5.22526 6.14941 5.21592 6.1463 5.41074 6.60084C6.24298 8.54208 7.64456 9.89548 9.61373 10.6668C9.78631 10.7344 9.89484 10.7299 10.0198 10.5704C10.252 10.2732 10.5087 9.99456 10.7644 9.71642C11.0976 9.35341 11.5082 9.241 11.9588 9.44894C12.5272 9.71153 13.0961 9.98079 13.6339 10.2994C14.2686 10.6753 14.8731 11.1031 15.4861 11.5155C15.745 11.6896 15.9011 11.9398 15.9771 12.2446C16.0185 12.4117 16.0061 12.5685 15.9207 12.7107C15.8099 12.896 15.6996 13.0866 15.5581 13.247C14.6436 14.2849 13.5836 15.1491 12.3858 15.8427C12.2452 15.9236 12.0824 15.9653 11.9943 16Z" fill="#C19976"/>
</svg>
