<svg width="104" height="104" viewBox="0 0 104 104" fill="none" xmlns="http://www.w3.org/2000/svg">
<circle opacity="0.1" cx="52" cy="52" r="52" fill="#C19976"/>
<path d="M30.2568 54.7057C30.3699 53.9513 30.4579 53.1969 30.5962 52.4426C31.7529 45.716 37.2222 39.9451 43.8984 38.4992C45.0928 38.2351 46.325 38.1723 47.5446 38.0465C49.2545 37.8705 50.1346 39.1152 50.1849 40.4605C50.2352 41.8939 49.1287 43.038 47.62 43.0506C45.6838 43.0757 43.8355 43.478 42.1005 44.3456C41.3084 44.7479 40.5666 45.2383 39.8122 45.6909C39.8248 45.7286 39.8373 45.7789 39.8625 45.8166C40.3151 45.8543 40.7677 45.8795 41.2078 45.9423C45.8346 46.5836 49.3299 50.016 49.9208 54.6554C50.6501 60.2881 46.7273 65.1286 41.5095 65.8453C35.902 66.6123 30.986 62.7775 30.3322 57.1574C30.3196 57.0443 30.2819 56.9437 30.2568 56.8305C30.2568 56.1264 30.2568 55.4223 30.2568 54.7057Z" fill="white"/>
<path d="M63.4365 45.7286C64.5178 45.9549 65.6368 46.0806 66.6803 46.4075C71.0934 47.8031 73.9978 52.3043 73.5074 56.9059C73.0548 61.1305 70.251 64.5 66.2654 65.6064C60.595 67.178 54.8492 63.4942 53.9565 57.6729C53.4661 54.4291 54.0319 51.2984 55.4401 48.3815C58.6713 41.7556 64.0023 38.2854 71.3952 38.0465C72.6776 38.0088 73.608 38.9266 73.7212 40.2594C73.8343 41.567 72.9919 42.774 71.7472 42.9751C71.0557 43.0883 70.339 43.0631 69.6349 43.1512C67.309 43.4529 65.2344 44.333 63.4365 45.7286Z" fill="white"/>
</svg>
