<svg width="1003" height="134" viewBox="0 0 1003 134" fill="none" xmlns="http://www.w3.org/2000/svg">
<path opacity="0.2" d="M76.4 99.42L107.72 9.41999H93.68V5.99999H121.22V9.41999H112.76L69.38 133.8H54.26L8.36 9.41999H0.08V5.99999H58.94V9.41999H46.16L76.4 99.42ZM127.323 5.99999H182.223V9.41999H172.323V128.58H182.223V132H127.323V128.58H137.223V9.41999H127.323V5.99999ZM259.407 7.61999C240.807 7.61999 231.507 25.56 231.507 61.44V75.66C231.507 92.7 233.967 106.08 238.887 115.8C243.807 125.4 251.067 130.2 260.667 130.2C273.867 130.2 285.987 117.36 297.027 91.68H300.267L299.007 131.82H297.027C296.307 130.5 295.647 129.6 295.047 129.12C294.447 128.52 293.547 128.22 292.347 128.22C291.267 128.22 286.947 129.18 279.387 131.1C271.827 132.9 264.147 133.8 256.347 133.8C236.787 133.8 221.607 128.52 210.807 117.96C200.127 107.4 194.787 91.56 194.787 70.44C194.787 49.2 200.367 32.82 211.527 21.3C222.807 9.78 237.927 4.02 256.887 4.02C264.207 4.02 271.347 4.97999 278.307 6.89999C285.387 8.7 289.527 9.6 290.727 9.6C291.927 9.6 292.827 9.36 293.427 8.88C294.027 8.28 294.687 7.32 295.407 5.99999H297.387L298.827 45.06H295.587C290.187 32.94 284.607 23.7 278.847 17.34C273.207 10.86 266.727 7.61999 259.407 7.61999ZM421.315 5.99999L423.115 51.18H419.695C414.415 35.22 409.735 24.36 405.655 18.6C401.575 12.72 395.695 9.78 388.015 9.78H385.855V128.22H401.155V132H335.455V128.22H350.755V9.78H348.415C340.735 9.78 334.795 12.84 330.595 18.96C326.395 24.96 321.775 35.7 316.735 51.18H313.315L315.115 5.99999H421.315ZM515.037 76.38V63.06C515.037 41.1 513.957 27.24 511.797 21.48C509.397 14.88 505.977 10.8 501.537 9.23999C499.017 8.27999 495.957 7.79999 492.357 7.79999C488.757 7.79999 485.637 8.27999 482.997 9.23999C480.477 10.2 478.377 11.88 476.697 14.28C475.017 16.68 473.637 19.2 472.557 21.84C471.597 24.48 470.817 28.2 470.217 33C469.497 39.96 469.137 50.22 469.137 63.78V76.74C469.137 91.38 469.677 101.82 470.757 108.06C471.957 114.18 473.397 118.56 475.077 121.2C478.797 127.08 484.557 130.02 492.357 130.02C501.837 130.02 507.957 126.06 510.717 118.14C513.597 110.1 515.037 96.18 515.037 76.38ZM491.997 133.8C471.957 133.8 456.957 128.4 446.997 117.6C437.157 106.68 432.237 90.96 432.237 70.44C432.237 49.8 437.517 33.6 448.077 21.84C458.757 9.95999 473.817 4.02 493.257 4.02C512.697 4.02 527.337 9.65999 537.177 20.94C547.137 32.1 552.117 48 552.117 68.64C552.117 89.28 547.077 105.3 536.997 116.7C527.037 128.1 512.037 133.8 491.997 133.8ZM619.145 68.28H609.605V128.58H621.305V132H562.805V128.58H574.505V9.41999H562.805V5.99999H617.165C632.765 5.99999 643.805 6.83999 650.285 8.51999C656.885 10.08 661.505 12 664.145 14.28C669.905 18.96 672.785 26.4 672.785 36.6C672.785 46.8 670.265 54.12 665.225 58.56C660.185 62.88 652.505 65.46 642.185 66.3V66.84C651.905 68.16 658.685 71.04 662.525 75.48C666.365 79.92 668.285 87.36 668.285 97.8V107.34C668.285 113.58 668.585 117.78 669.185 119.94C669.905 122.1 671.345 123.18 673.505 123.18C675.665 123.18 677.345 122.22 678.545 120.3C679.865 118.26 681.065 114.06 682.145 107.7L685.205 108.06C683.885 118.26 681.545 125.1 678.185 128.58C674.945 132.06 668.405 133.8 658.565 133.8C648.725 133.8 641.705 131.52 637.505 126.96C633.425 122.28 631.385 113.58 631.385 100.86V87.72C631.385 81 630.485 76.08 628.685 72.96C627.005 69.84 623.825 68.28 619.145 68.28ZM609.605 9.41999V64.86H615.365C622.205 64.86 627.245 62.76 630.485 58.56C633.845 54.36 635.525 47.52 635.525 38.04V32.82C635.525 23.34 633.905 17.1 630.665 14.1C627.545 10.98 622.505 9.41999 615.545 9.41999H609.605ZM694.053 5.99999H748.953V9.41999H739.053V128.58H748.953V132H694.053V128.58H703.953V9.41999H694.053V5.99999ZM831.898 128.58L818.758 89.7H783.118L769.258 128.58H782.758V132H755.218V128.58H763.678L809.578 4.91999H824.338L869.698 128.58H877.978V132H819.118V128.58H831.898ZM801.658 38.58L784.738 85.74H817.318L801.658 38.58ZM876.728 50.64L875.108 48.12C886.268 40.8 891.848 33.48 891.848 26.16C891.848 22.32 890.228 20.16 886.988 19.68L879.428 26.7C877.028 25.86 874.808 24.36 872.768 22.2C870.848 19.92 869.888 17.04 869.888 13.56C869.888 10.08 871.268 7.13999 874.028 4.74C876.788 2.21999 880.388 0.959992 884.828 0.959992C889.388 0.959992 893.108 2.51999 895.988 5.64C898.988 8.63999 900.488 12.84 900.488 18.24C900.488 30 892.568 40.8 876.728 50.64ZM960.439 130.02C966.439 130.02 971.719 128.4 976.279 125.16C980.959 121.92 983.299 117.06 983.299 110.58C983.299 103.98 980.779 98.94 975.739 95.46C970.819 91.98 963.739 88.98 954.499 86.46C945.379 83.82 938.719 81.54 934.519 79.62C930.439 77.7 926.539 75.18 922.819 72.06C915.379 65.82 911.659 56.16 911.659 43.08C911.659 32.4 915.439 23.22 922.999 15.54C930.679 7.86 941.119 4.02 954.319 4.02C960.679 4.02 967.279 4.97999 974.119 6.89999C981.079 8.7 985.399 9.6 987.079 9.6C988.759 9.6 990.259 8.4 991.579 5.99999H993.559L994.819 42.36H991.939C986.179 31.92 980.119 23.58 973.759 17.34C967.519 10.98 960.679 7.79999 953.239 7.79999C945.919 7.79999 940.219 9.53999 936.139 13.02C932.059 16.38 930.019 20.94 930.019 26.7C930.019 32.34 932.419 36.72 937.219 39.84C942.139 42.84 948.139 45.3 955.219 47.22C962.299 49.14 966.919 50.46 969.079 51.18C971.359 51.9 974.119 52.92 977.359 54.24C980.719 55.44 983.419 56.76 985.459 58.2C987.619 59.52 989.839 61.26 992.119 63.42C994.519 65.46 996.379 67.74 997.699 70.26C1000.94 76.02 1002.56 82.86 1002.56 90.78C1002.56 103.74 998.479 114.18 990.319 122.1C982.279 129.9 971.659 133.8 958.459 133.8C951.619 133.8 943.759 132.9 934.879 131.1C926.119 129.3 921.259 128.4 920.299 128.4C918.619 128.4 916.999 130.2 915.439 133.8H912.919L911.119 90.96H914.179C919.459 101.4 926.179 110.52 934.339 118.32C942.619 126.12 951.319 130.02 960.439 130.02Z" fill="#232B35"/>
</svg>
